<svg xmlns="http://www.w3.org/2000/svg" viewBox="0 0 24 24" fill="none">
  <rect width="24" height="24" rx="6" fill="#060c1a"/>
  <path d="M7 16.3c2.2 0 4-1.83 4-4.05 0-1.16-.57-2.26-1.71-3.19S7.29 6.75 7 5.3c-.29 1.45-1.14 2.84-2.29 3.76S3 11.1 3 12.25c0 2.22 1.8 4.05 4 4.05z" stroke="#22d3ee" stroke-width="1.6" stroke-linecap="round" stroke-linejoin="round" fill="#22d3ee" fill-opacity="0.18"/>
  <path d="M12.56 6.6A10.97 10.97 0 0 0 14 3.02c.5 2.5 2 4.9 4 6.5s3 3.54 3 5.48c0 2.94-2.24 5.3-5 5.3" stroke="#22d3ee" stroke-width="1.6" stroke-linecap="round" stroke-linejoin="round" fill="#22d3ee" fill-opacity="0.18"/>
</svg>
